<?xml version="1.0"?>
<svg version="1.1" xmlns="http://www.w3.org/2000/svg" width="179" height="51" style="border: dashed 2px #aaa"><path fill="#0f3b99" d=""/><path fill="#0f3b99" d="M21.2578125,36.30078125q0-1.72265625,0.998046875-3.0283203125t2.87109375-2.0439453125l0-0.13671875q-2.994140625-0.7109375-2.994140625-3.47265625q0-1.462890625,0.9228515625-2.3447265625t3.0146484375-1.3876953125q-2.802734375,0.177734375-3.71875,0.177734375l-0.30078125,0l0-3.048828125l10.9921875,0l0,2.87109375l-1.025390625,0q-2.529296875,0-4.1357421875,0.9365234375t-1.6064453125,2.5361328125q0,1.298828125,0.8818359375,1.859375t2.8916015625,0.560546875l2.26953125,0l0,2.87109375l-2.296875,0q-2.365234375,0-3.41796875,0.8408203125t-1.052734375,2.5224609375q0,0.970703125,0.3212890625,1.5517578125t0.984375,0.943359375t2.5224609375,0.7314453125q2.26953125,0.451171875,3.349609375,1.3056640625t1.080078125,2.2490234375q0,2.037109375-1.88671875,4.67578125l-4.197265625,0q0.943359375-1.271484375,1.4833984375-2.3310546875t0.5400390625-1.7021484375q0-0.4375-0.5400390625-0.7177734375t-1.9345703125-0.5400390625q-2.966796875-0.51953125-4.4912109375-2.009765625t-1.5244140625-3.869140625z M36.70388671875,36.4921875l0-3.41796875l7.341796875,0l0,3.41796875l-7.341796875,0z M65.9038671875,32.103515625q0,4.935546875-2.8095703125,7.560546875t-8.1142578125,2.625l-5.66015625,0l0-19.98828125l6.275390625,0q4.89453125,0,7.6015625,2.583984375t2.70703125,7.21875z M61.5015234375,32.212890625q0-6.439453125-5.6875-6.439453125l-2.255859375,0l0,13.015625l1.818359375,0q6.125,0,6.125-6.576171875z M81.34994140625,42.2890625l-0.806640625-2.078125l-0.109375,0q-1.052734375,1.326171875-2.1669921875,1.8388671875t-2.9052734375,0.5126953125q-2.201171875,0-3.4658203125-1.2578125t-1.2646484375-3.58203125q0-2.43359375,1.7021484375-3.5888671875t5.1337890625-1.2783203125l2.65234375-0.08203125l0-0.669921875q0-2.32421875-2.37890625-2.32421875q-1.83203125,0-4.306640625,1.107421875l-1.380859375-2.81640625q2.638671875-1.380859375,5.8515625-1.380859375q3.076171875,0,4.716796875,1.33984375t1.640625,4.07421875l0,10.185546875l-2.912109375,0z M80.11947265625,35.20703125l-1.61328125,0.0546875q-1.818359375,0.0546875-2.70703125,0.65625t-0.888671875,1.83203125q0,1.763671875,2.0234375,1.763671875q1.44921875,0,2.3173828125-0.833984375t0.8681640625-2.21484375l0-1.2578125z M96.9190625,39.240234375q1.09375,0,2.625-0.478515625l0,3.103515625q-1.55859375,0.697265625-3.828125,0.697265625q-2.501953125,0-3.6435546875-1.2646484375t-1.1416015625-3.7939453125l0-7.369140625l-1.99609375,0l0-1.763671875l2.296875-1.39453125l1.203125-3.2265625l2.666015625,0l0,3.25390625l4.279296875,0l0,3.130859375l-4.279296875,0l0,7.369140625q0,0.888671875,0.4990234375,1.3125t1.3193359375,0.423828125z M114.26552734375,42.2890625l-0.806640625-2.078125l-0.109375,0q-1.052734375,1.326171875-2.1669921875,1.8388671875t-2.9052734375,0.5126953125q-2.201171875,0-3.4658203125-1.2578125t-1.2646484375-3.58203125q0-2.43359375,1.7021484375-3.5888671875t5.1337890625-1.2783203125l2.65234375-0.08203125l0-0.669921875q0-2.32421875-2.37890625-2.32421875q-1.83203125,0-4.306640625,1.107421875l-1.380859375-2.81640625q2.638671875-1.380859375,5.8515625-1.380859375q3.076171875,0,4.716796875,1.33984375t1.640625,4.07421875l0,10.185546875l-2.912109375,0z M113.03505859375,35.20703125l-1.61328125,0.0546875q-1.818359375,0.0546875-2.70703125,0.65625t-0.888671875,1.83203125q0,1.763671875,2.0234375,1.763671875q1.44921875,0,2.3173828125-0.833984375t0.8681640625-2.21484375l0-1.2578125z"/></svg>
