<?xml version="1.0"?>
<svg version="1.1" xmlns="http://www.w3.org/2000/svg" width="179" height="51" style=""><path fill="#0f3b99" d=""/><path fill="#0f3b99" d="M21.6171875,39.38671875q0-2.21484375,1.283203125-3.8935546875t3.69140625-2.6279296875l0-0.17578125q-3.849609375-0.9140625-3.849609375-4.46484375q0-1.880859375,1.1865234375-3.0146484375t3.8759765625-1.7841796875q-3.603515625,0.228515625-4.78125,0.228515625l-0.38671875,0l0-3.919921875l14.1328125,0l0,3.69140625l-1.318359375,0q-3.251953125,0-5.3173828125,1.2041015625t-2.0654296875,3.2607421875q0,1.669921875,1.1337890625,2.390625t3.7177734375,0.720703125l2.91796875,0l0,3.69140625l-2.953125,0q-3.041015625,0-4.39453125,1.0810546875t-1.353515625,3.2431640625q0,1.248046875,0.4130859375,1.9951171875t1.265625,1.212890625t3.2431640625,0.9404296875q2.91796875,0.580078125,4.306640625,1.6787109375t1.388671875,2.8916015625q0,2.619140625-2.42578125,6.01171875l-5.396484375,0q1.212890625-1.634765625,1.9072265625-2.9970703125t0.6943359375-2.1884765625q0-0.5625-0.6943359375-0.9228515625t-2.4873046875-0.6943359375q-3.814453125-0.66796875-5.7744140625-2.583984375t-1.9599609375-4.974609375z M41.47642578125,39.6328125l0-4.39453125l9.439453125,0l0,4.39453125l-9.439453125,0z M79.0192578125,33.990234375q0,6.345703125-3.6123046875,9.720703125t-10.4326171875,3.375l-7.27734375,0l0-25.69921875l8.068359375,0q6.29296875,0,9.7734375,3.322265625t3.48046875,9.28125z M73.3591015625,34.130859375q0-8.279296875-7.3125-8.279296875l-2.900390625,0l0,16.734375l2.337890625,0q7.875,0,7.875-8.455078125z M98.87849609375,47.0859375l-1.037109375-2.671875l-0.140625,0q-1.353515625,1.705078125-2.7861328125,2.3642578125t-3.7353515625,0.6591796875q-2.830078125,0-4.4560546875-1.6171875t-1.6259765625-4.60546875q0-3.12890625,2.1884765625-4.6142578125t6.6005859375-1.6435546875l3.41015625-0.10546875l0-0.861328125q0-2.98828125-3.05859375-2.98828125q-2.35546875,0-5.537109375,1.423828125l-1.775390625-3.62109375q3.392578125-1.775390625,7.5234375-1.775390625q3.955078125,0,6.064453125,1.72265625t2.109375,5.23828125l0,13.095703125l-3.744140625,0z M97.29646484375,37.98046875l-2.07421875,0.0703125q-2.337890625,0.0703125-3.48046875,0.84375t-1.142578125,2.35546875q0,2.267578125,2.6015625,2.267578125q1.86328125,0,2.9794921875-1.072265625t1.1162109375-2.84765625l0-1.6171875z M118.8959375,43.166015625q1.40625,0,3.375-0.615234375l0,3.990234375q-2.00390625,0.896484375-4.921875,0.896484375q-3.216796875,0-4.6845703125-1.6259765625t-1.4677734375-4.8779296875l0-9.474609375l-2.56640625,0l0-2.267578125l2.953125-1.79296875l1.546875-4.1484375l3.427734375,0l0,4.18359375l5.501953125,0l0,4.025390625l-5.501953125,0l0,9.474609375q0,1.142578125,0.6416015625,1.6875t1.6962890625,0.544921875z M141.19853515625,47.0859375l-1.037109375-2.671875l-0.140625,0q-1.353515625,1.705078125-2.7861328125,2.3642578125t-3.7353515625,0.6591796875q-2.830078125,0-4.4560546875-1.6171875t-1.6259765625-4.60546875q0-3.12890625,2.1884765625-4.6142578125t6.6005859375-1.6435546875l3.41015625-0.10546875l0-0.861328125q0-2.98828125-3.05859375-2.98828125q-2.35546875,0-5.537109375,1.423828125l-1.775390625-3.62109375q3.392578125-1.775390625,7.5234375-1.775390625q3.955078125,0,6.064453125,1.72265625t2.109375,5.23828125l0,13.095703125l-3.744140625,0z M139.61650390625,37.98046875l-2.07421875,0.0703125q-2.337890625,0.0703125-3.48046875,0.84375t-1.142578125,2.35546875q0,2.267578125,2.6015625,2.267578125q1.86328125,0,2.9794921875-1.072265625t1.1162109375-2.84765625l0-1.6171875z"/></svg>
